<?xml version="1.0" standalone="no"?>
<!DOCTYPE svg PUBLIC "-//W3C//DTD SVG 20010904//EN"
 "http://www.w3.org/TR/2001/REC-SVG-20010904/DTD/svg10.dtd">
<svg version="1.0" xmlns="http://www.w3.org/2000/svg"
 width="1024.000000pt" height="1024.000000pt" viewBox="0 0 1024.000000 1024.000000"
 preserveAspectRatio="xMidYMid meet">

<g transform="translate(0.000000,1024.000000) scale(0.100000,-0.100000)"
fill="#000000" stroke="none">
<path d="M4950 8333 c-358 -35 -570 -79 -860 -178 -542 -187 -1043 -526 -1425
-967 -450 -518 -697 -1071 -781 -1748 -16 -131 -18 -483 -4 -667 32 -406 147
-819 331 -1185 184 -365 534 -801 849 -1054 409 -329 902 -570 1375 -672 533
-115 987 -110 1510 18 496 122 1025 400 1405 739 339 303 579 608 753 957 91
181 140 301 201 494 120 381 172 797 148 1191 -16 265 -51 462 -124 709 -157
526 -437 993 -829 1382 -580 574 -1305 913 -2088 977 -123 10 -378 12 -461 4z
m355 -343 c889 -56 1712 -513 2263 -1258 117 -158 259 -414 338 -609 96 -240
170 -539 195 -788 15 -151 6 -520 -16 -665 -21 -141 -84 -400 -97 -400 -6 0
-52 40 -102 88 -222 214 -575 548 -846 802 -162 151 -322 301 -356 333 l-61
57 -23 -92 c-12 -51 -33 -124 -46 -163 l-24 -70 37 -34 c21 -19 124 -116 228
-216 105 -99 258 -244 340 -322 355 -333 740 -705 743 -716 5 -23 -145 -310
-228 -437 -189 -287 -442 -555 -738 -779 -468 -354 -1081 -575 -1660 -598
l-154 -6 48 89 c192 358 385 625 740 1019 173 192 285 304 704 705 146 140
311 298 368 353 l103 99 -68 61 c-37 34 -86 79 -108 99 l-41 37 -344 -331
c-650 -624 -870 -853 -1136 -1183 -111 -138 -259 -348 -341 -485 -74 -122
-203 -356 -203 -368 0 -4 -10 -18 -21 -32 l-21 -25 6 170 c7 191 15 259 52
425 39 174 79 292 149 435 127 261 288 465 535 678 l55 47 -345 0 -344 0 -176
-51 c-96 -28 -317 -93 -490 -146 -355 -107 -419 -117 -530 -88 -88 23 -183 74
-254 138 l-59 53 66 49 67 49 0 102 0 103 -71 3 -71 3 45 33 c133 95 733 569
756 596 11 13 12 64 6 256 l-7 240 68 72 c38 40 127 134 199 208 71 75 180
188 242 252 122 127 226 204 383 283 90 45 190 87 254 106 l28 8 -4 -89 -4
-90 138 -91 c76 -51 140 -90 142 -88 3 4 22 523 32 924 4 132 10 246 13 253 5
8 32 -18 80 -75 229 -277 359 -565 392 -869 20 -191 -17 -406 -96 -565 l-36
-70 107 -102 c59 -56 109 -103 113 -105 11 -4 70 100 107 191 67 166 113 445
100 617 -20 286 -130 601 -299 858 -94 144 -623 792 -646 792 -4 0 -13 -53
-20 -117 -7 -65 -28 -242 -46 -393 -19 -151 -44 -363 -55 -470 -12 -107 -25
-201 -30 -209 -4 -8 -31 -20 -60 -28 l-53 -13 -41 34 c-22 18 -134 116 -247
217 -113 101 -302 270 -419 374 -117 105 -268 238 -334 297 -66 59 -121 106
-122 105 -1 -1 2 -24 6 -52 5 -27 25 -151 44 -275 20 -124 72 -450 115 -725
44 -275 83 -525 86 -556 l7 -56 -125 -134 c-68 -74 -161 -177 -206 -229 l-81
-95 0 -230 0 -230 -102 -80 c-57 -43 -263 -206 -458 -360 -195 -154 -376 -296
-402 -315 -27 -20 -45 -41 -43 -49 5 -13 136 -203 239 -346 148 -206 285 -311
490 -374 153 -47 274 -38 531 39 88 27 257 76 375 110 118 34 223 67 233 72
10 5 21 7 24 5 2 -3 -13 -47 -35 -98 -92 -219 -163 -448 -211 -679 -35 -172
-48 -276 -57 -463 l-7 -139 -36 7 c-63 12 -248 75 -381 130 -662 274 -1240
807 -1555 1436 -133 264 -216 535 -270 879 -26 162 -31 541 -11 710 82 668
368 1251 856 1741 528 532 1213 841 1950 882 30 2 69 4 85 5 17 1 102 -3 190
-8z m-646 -1442 c86 -79 178 -164 205 -189 l49 -46 -82 -43 c-46 -24 -124 -72
-173 -107 -50 -35 -91 -63 -93 -61 -1 2 -26 135 -55 297 -29 162 -55 303 -58
315 -5 20 -5 20 22 -2 16 -12 99 -86 185 -164z"/>
<path d="M4690 5098 c-36 -50 -91 -126 -122 -169 l-58 -79 211 0 212 0 78 75
c93 88 176 151 282 212 42 25 77 47 77 49 0 2 -138 4 -307 4 l-308 -1 -65 -91z"/>
<path d="M5393 4720 c-220 -28 -500 -137 -729 -283 -138 -88 -363 -250 -363
-262 -1 -5 41 -51 93 -102 l94 -92 185 123 c273 181 492 283 687 320 103 20
284 20 375 1 70 -15 192 -67 246 -106 l30 -21 96 89 c53 49 98 94 100 100 6
17 -128 108 -225 154 -125 60 -213 80 -377 84 -77 2 -172 0 -212 -5z"/>
</g>
</svg>
